%TF.GenerationSoftware,KiCad,Pcbnew,9.0.6*%
%TF.CreationDate,2025-11-30T08:55:57-05:00*%
%TF.ProjectId,project-solder,70726f6a-6563-4742-9d73-6f6c6465722e,rev?*%
%TF.SameCoordinates,Original*%
%TF.FileFunction,Copper,L1,Top*%
%TF.FilePolarity,Positive*%
%FSLAX46Y46*%
G04 Gerber Fmt 4.6, Leading zero omitted, Abs format (unit mm)*
G04 Created by KiCad (PCBNEW 9.0.6) date 2025-11-30 08:55:57*
%MOMM*%
%LPD*%
G01*
G04 APERTURE LIST*
G04 Aperture macros list*
%AMRoundRect*
0 Rectangle with rounded corners*
0 $1 Rounding radius*
0 $2 $3 $4 $5 $6 $7 $8 $9 X,Y pos of 4 corners*
0 Add a 4 corners polygon primitive as box body*
4,1,4,$2,$3,$4,$5,$6,$7,$8,$9,$2,$3,0*
0 Add four circle primitives for the rounded corners*
1,1,$1+$1,$2,$3*
1,1,$1+$1,$4,$5*
1,1,$1+$1,$6,$7*
1,1,$1+$1,$8,$9*
0 Add four rect primitives between the rounded corners*
20,1,$1+$1,$2,$3,$4,$5,0*
20,1,$1+$1,$4,$5,$6,$7,0*
20,1,$1+$1,$6,$7,$8,$9,0*
20,1,$1+$1,$8,$9,$2,$3,0*%
G04 Aperture macros list end*
%TA.AperFunction,NonConductor*%
%ADD10C,0.200000*%
%TD*%
%TA.AperFunction,ComponentPad*%
%ADD11R,1.800000X1.800000*%
%TD*%
%TA.AperFunction,ComponentPad*%
%ADD12C,1.800000*%
%TD*%
%TA.AperFunction,ComponentPad*%
%ADD13C,1.440000*%
%TD*%
%TA.AperFunction,ComponentPad*%
%ADD14C,1.600000*%
%TD*%
%TA.AperFunction,ComponentPad*%
%ADD15RoundRect,0.250000X-0.550000X-0.550000X0.550000X-0.550000X0.550000X0.550000X-0.550000X0.550000X0*%
%TD*%
%TA.AperFunction,SMDPad,CuDef*%
%ADD16R,1.270000X5.080000*%
%TD*%
%TA.AperFunction,SMDPad,CuDef*%
%ADD17C,17.800000*%
%TD*%
%TA.AperFunction,ComponentPad*%
%ADD18C,2.000000*%
%TD*%
%TA.AperFunction,Conductor*%
%ADD19C,0.200000*%
%TD*%
G04 APERTURE END LIST*
D10*
X147000000Y-98000000D02*
X116000000Y-130000000D01*
X138000000Y-73000000D02*
X147000000Y-80500000D01*
X115500000Y-81000000D02*
X124500000Y-73000000D01*
X108000000Y-73000000D02*
X115500000Y-81000000D01*
X124500000Y-73000000D02*
X138000000Y-73000000D01*
X84000000Y-97000000D02*
X84000000Y-81500000D01*
X147000000Y-80500000D02*
X147000000Y-98000000D01*
X116000000Y-130000000D02*
X84000000Y-97000000D01*
X84000000Y-81500000D02*
X95000000Y-73000000D01*
X95000000Y-73000000D02*
X108000000Y-73000000D01*
D11*
%TO.P,D11,1,K*%
%TO.N,Net-(D11-K)*%
X124000000Y-110500000D03*
D12*
%TO.P,D11,2,A*%
%TO.N,Net-(D10-K)*%
X126540000Y-110500000D03*
%TD*%
D13*
%TO.P,RV2,1,1*%
%TO.N,Net-(BT1--)*%
X116000000Y-117500000D03*
%TO.P,RV2,2,2*%
%TO.N,Net-(D4-K)*%
X118540000Y-114960000D03*
%TO.P,RV2,3,3*%
%TO.N,unconnected-(RV2-Pad3)*%
X116000000Y-112420000D03*
%TD*%
D11*
%TO.P,D6,1,K*%
%TO.N,Net-(D6-K)*%
X90000000Y-83000000D03*
D12*
%TO.P,D6,2,A*%
%TO.N,Net-(D5-K)*%
X92540000Y-83000000D03*
%TD*%
D14*
%TO.P,R1,1*%
%TO.N,Net-(D11-K)*%
X112190000Y-123000000D03*
%TO.P,R1,2*%
%TO.N,Net-(BT1--)*%
X119810000Y-123000000D03*
%TD*%
D11*
%TO.P,D10,1,K*%
%TO.N,Net-(D10-K)*%
X96500000Y-102500000D03*
D12*
%TO.P,D10,2,A*%
%TO.N,Net-(D10-A)*%
X99040000Y-102500000D03*
%TD*%
D11*
%TO.P,D8,1,K*%
%TO.N,Net-(D8-K)*%
X87000000Y-92000000D03*
D12*
%TO.P,D8,2,A*%
%TO.N,Net-(D7-K)*%
X89540000Y-92000000D03*
%TD*%
D11*
%TO.P,D5,1,K*%
%TO.N,Net-(D5-K)*%
X98000000Y-78000000D03*
D12*
%TO.P,D5,2,A*%
%TO.N,Net-(D3-K)*%
X100540000Y-78000000D03*
%TD*%
D11*
%TO.P,D3,1,K*%
%TO.N,Net-(D3-K)*%
X139460000Y-82500000D03*
D12*
%TO.P,D3,2,A*%
%TO.N,Net-(D2-K)*%
X142000000Y-82500000D03*
%TD*%
D15*
%TO.P,C1,1*%
%TO.N,Net-(D1-A)*%
X131000000Y-88500000D03*
D14*
%TO.P,C1,2*%
%TO.N,Net-(BT1--)*%
X136000000Y-88500000D03*
%TD*%
D11*
%TO.P,D4,1,K*%
%TO.N,Net-(D4-K)*%
X105725000Y-80500000D03*
D12*
%TO.P,D4,2,A*%
%TO.N,Net-(BT1-+)*%
X108265000Y-80500000D03*
%TD*%
D11*
%TO.P,D9,1,K*%
%TO.N,Net-(D10-A)*%
X132225000Y-102500000D03*
D12*
%TO.P,D9,2,A*%
%TO.N,Net-(D8-K)*%
X134765000Y-102500000D03*
%TD*%
D11*
%TO.P,D2,1,K*%
%TO.N,Net-(D2-K)*%
X130725000Y-78000000D03*
D12*
%TO.P,D2,2,A*%
%TO.N,Net-(D1-K)*%
X133265000Y-78000000D03*
%TD*%
D16*
%TO.P,BT1,1,+*%
%TO.N,Net-(BT1-+)*%
X104515000Y-95000000D03*
X126485000Y-95000000D03*
D17*
%TO.P,BT1,2,-*%
%TO.N,Net-(BT1--)*%
X115500000Y-95000000D03*
%TD*%
D18*
%TO.P,SW1,1,1*%
%TO.N,Net-(BT1-+)*%
X94000000Y-89000000D03*
X100500000Y-89000000D03*
%TO.P,SW1,2,2*%
%TO.N,Net-(D1-A)*%
X94000000Y-93500000D03*
X100500000Y-93500000D03*
%TD*%
D11*
%TO.P,D7,1,K*%
%TO.N,Net-(D7-K)*%
X141000000Y-93500000D03*
D12*
%TO.P,D7,2,A*%
%TO.N,Net-(D6-K)*%
X143540000Y-93500000D03*
%TD*%
D11*
%TO.P,D1,1,K*%
%TO.N,Net-(D1-K)*%
X122725000Y-80500000D03*
D12*
%TO.P,D1,2,A*%
%TO.N,Net-(D1-A)*%
X125265000Y-80500000D03*
%TD*%
D19*
%TO.N,Net-(D1-K)*%
X133265000Y-78000000D02*
X131966000Y-79299000D01*
X131966000Y-79299000D02*
X123926000Y-79299000D01*
X123926000Y-79299000D02*
X122725000Y-80500000D01*
%TO.N,Net-(BT1-+)*%
X108195371Y-79299000D02*
X114695371Y-85799000D01*
X102428208Y-92913208D02*
X102428208Y-79299000D01*
X102428208Y-79299000D02*
X108195371Y-79299000D01*
X117731900Y-85799000D02*
X117833900Y-85901000D01*
X100500000Y-83323000D02*
X100500000Y-89000000D01*
X127500000Y-95000000D02*
X126485000Y-95000000D01*
X114695371Y-85799000D02*
X117731900Y-85799000D01*
X104515000Y-95000000D02*
X104515000Y-93015000D01*
X104515000Y-95000000D02*
X102428208Y-92913208D01*
X108265000Y-80500000D02*
X107064000Y-79299000D01*
X100500000Y-89000000D02*
X94000000Y-89000000D01*
X129000000Y-93500000D02*
X127500000Y-95000000D01*
X104524000Y-79299000D02*
X100500000Y-83323000D01*
X121401000Y-85901000D02*
X129000000Y-93500000D01*
X117833900Y-85901000D02*
X121401000Y-85901000D01*
X104515000Y-93015000D02*
X100500000Y-89000000D01*
X107064000Y-79299000D02*
X104524000Y-79299000D01*
%TO.N,Net-(D2-K)*%
X136299000Y-76799000D02*
X131926000Y-76799000D01*
X131926000Y-76799000D02*
X130725000Y-78000000D01*
X142000000Y-82500000D02*
X136299000Y-76799000D01*
%TO.N,Net-(BT1--)*%
X119561000Y-115382913D02*
X117443913Y-117500000D01*
X136000000Y-89262000D02*
X119631000Y-105631000D01*
X136000000Y-88500000D02*
X136000000Y-89262000D01*
X117443913Y-117500000D02*
X116000000Y-117500000D01*
X119631000Y-105631000D02*
X119561000Y-105701000D01*
X119631000Y-99131000D02*
X115500000Y-95000000D01*
X119561000Y-105701000D02*
X119561000Y-115382913D01*
X119631000Y-105631000D02*
X119631000Y-99131000D01*
%TO.N,Net-(D1-A)*%
X94000000Y-93500000D02*
X100500000Y-93500000D01*
%TO.N,Net-(D3-K)*%
X116012179Y-82500000D02*
X111512179Y-78000000D01*
X139460000Y-82500000D02*
X116012179Y-82500000D01*
X111512179Y-78000000D02*
X100540000Y-78000000D01*
%TO.N,Net-(D4-K)*%
X105725000Y-80500000D02*
X105725000Y-98237179D01*
X118540000Y-111052179D02*
X118540000Y-114960000D01*
X105725000Y-98237179D02*
X118540000Y-111052179D01*
%TO.N,Net-(D5-K)*%
X92540000Y-83000000D02*
X97540000Y-78000000D01*
X97540000Y-78000000D02*
X98000000Y-78000000D01*
%TO.N,Net-(D6-K)*%
X88339000Y-92497471D02*
X88339000Y-84661000D01*
X115577087Y-118521000D02*
X102000000Y-104943913D01*
X116990013Y-118521000D02*
X115577087Y-118521000D01*
X119962000Y-105867100D02*
X119962000Y-115549013D01*
X91439471Y-93201000D02*
X89042529Y-93201000D01*
X143540000Y-93500000D02*
X142339000Y-94701000D01*
X131128100Y-94701000D02*
X119962000Y-105867100D01*
X119962000Y-115549013D02*
X116990013Y-118521000D01*
X88339000Y-84661000D02*
X90000000Y-83000000D01*
X102000000Y-104943913D02*
X102000000Y-103761529D01*
X142339000Y-94701000D02*
X131128100Y-94701000D01*
X102000000Y-103761529D02*
X91439471Y-93201000D01*
X89042529Y-93201000D02*
X88339000Y-92497471D01*
%TO.N,Net-(D7-K)*%
X141000000Y-93500000D02*
X141000000Y-91942950D01*
X141000000Y-91942950D02*
X136456050Y-87399000D01*
X115500000Y-83000000D02*
X112463471Y-83000000D01*
X112463471Y-83000000D02*
X108361471Y-78898000D01*
X135543950Y-87399000D02*
X131754129Y-91188821D01*
X126065308Y-85500000D02*
X118000000Y-85500000D01*
X118000000Y-85500000D02*
X115500000Y-83000000D01*
X89540000Y-91620108D02*
X89540000Y-92000000D01*
X131754129Y-91188821D02*
X126065308Y-85500000D01*
X136456050Y-87399000D02*
X135543950Y-87399000D01*
X102262108Y-78898000D02*
X89540000Y-91620108D01*
X108361471Y-78898000D02*
X102262108Y-78898000D01*
%TO.N,Net-(D8-K)*%
X120764000Y-106199300D02*
X120764000Y-115881213D01*
X114164529Y-119323000D02*
X97839000Y-102997471D01*
X134765000Y-102500000D02*
X131065700Y-106199300D01*
X117322213Y-119323000D02*
X114164529Y-119323000D01*
X88602000Y-93602000D02*
X87000000Y-92000000D01*
X131065700Y-106199300D02*
X120764000Y-106199300D01*
X97839000Y-101437000D02*
X90004000Y-93602000D01*
X97839000Y-102997471D02*
X97839000Y-101437000D01*
X120764000Y-115881213D02*
X117322213Y-119323000D01*
X90004000Y-93602000D02*
X88602000Y-93602000D01*
%TO.N,Net-(D10-A)*%
X120363000Y-115715113D02*
X117156113Y-118922000D01*
X115410987Y-118922000D02*
X99040000Y-102551013D01*
X120363000Y-106033200D02*
X120363000Y-115715113D01*
X123896200Y-102500000D02*
X120363000Y-106033200D01*
X117156113Y-118922000D02*
X115410987Y-118922000D01*
X99040000Y-102551013D02*
X99040000Y-102500000D01*
X132225000Y-102500000D02*
X123896200Y-102500000D01*
%TO.N,Net-(D10-K)*%
X96500000Y-108867050D02*
X96500000Y-102500000D01*
X126540000Y-111772792D02*
X114211792Y-124101000D01*
X114211792Y-124101000D02*
X111733950Y-124101000D01*
X111733950Y-124101000D02*
X96500000Y-108867050D01*
X126540000Y-110500000D02*
X126540000Y-111772792D01*
%TO.N,Net-(D11-K)*%
X114212313Y-123000000D02*
X124000000Y-113212313D01*
X124000000Y-113212313D02*
X124000000Y-110500000D01*
X112190000Y-123000000D02*
X114212313Y-123000000D01*
%TD*%
M02*
