%TF.GenerationSoftware,KiCad,Pcbnew,9.0.6*%
%TF.CreationDate,2025-11-30T08:55:57-05:00*%
%TF.ProjectId,project-solder,70726f6a-6563-4742-9d73-6f6c6465722e,rev?*%
%TF.SameCoordinates,Original*%
%TF.FileFunction,Legend,Bot*%
%TF.FilePolarity,Positive*%
%FSLAX46Y46*%
G04 Gerber Fmt 4.6, Leading zero omitted, Abs format (unit mm)*
G04 Created by KiCad (PCBNEW 9.0.6) date 2025-11-30 08:55:57*
%MOMM*%
%LPD*%
G01*
G04 APERTURE LIST*
%ADD10C,0.100000*%
G04 APERTURE END LIST*
D10*
G36*
X121659098Y-109330000D02*
G01*
X121659098Y-108360844D01*
X121522505Y-108360844D01*
X121522505Y-109330000D01*
X121659098Y-109330000D01*
G37*
G36*
X121885205Y-109330000D02*
G01*
X121885205Y-109200062D01*
X121294993Y-109200062D01*
X121294993Y-109330000D01*
X121885205Y-109330000D01*
G37*
G36*
X121885205Y-108490781D02*
G01*
X121885205Y-108360844D01*
X121294993Y-108360844D01*
X121294993Y-108490781D01*
X121885205Y-108490781D01*
G37*
G36*
X120251343Y-109330000D02*
G01*
X120251343Y-108360844D01*
X120114689Y-108360844D01*
X120114689Y-109330000D01*
X120251343Y-109330000D01*
G37*
G36*
X120251343Y-109330000D02*
G01*
X120251343Y-109200062D01*
X119609228Y-109200062D01*
X119609228Y-109330000D01*
X120251343Y-109330000D01*
G37*
G36*
X119205417Y-108353265D02*
G01*
X119268508Y-108370535D01*
X119322407Y-108398152D01*
X119368646Y-108436281D01*
X119408082Y-108486064D01*
X119440827Y-108549515D01*
X119466235Y-108629386D01*
X119482963Y-108729021D01*
X119489061Y-108852260D01*
X119483038Y-108971472D01*
X119466499Y-109068022D01*
X119441336Y-109145599D01*
X119408829Y-109207406D01*
X119369563Y-109256060D01*
X119323372Y-109293453D01*
X119269352Y-109320622D01*
X119205945Y-109337653D01*
X119131062Y-109343677D01*
X119056195Y-109337654D01*
X118992800Y-109320624D01*
X118938791Y-109293457D01*
X118892608Y-109256066D01*
X118853347Y-109207413D01*
X118820844Y-109145607D01*
X118795684Y-109068029D01*
X118779146Y-108971477D01*
X118773124Y-108852260D01*
X118916617Y-108852260D01*
X118923039Y-108967786D01*
X118940076Y-109053991D01*
X118965042Y-109117016D01*
X118996319Y-109161971D01*
X119033553Y-109192650D01*
X119077738Y-109211165D01*
X119131062Y-109217648D01*
X119184405Y-109211164D01*
X119228605Y-109192647D01*
X119265849Y-109161965D01*
X119297133Y-109117007D01*
X119322105Y-109053982D01*
X119339144Y-108967780D01*
X119345568Y-108852260D01*
X119339047Y-108731594D01*
X119321779Y-108641828D01*
X119296552Y-108576474D01*
X119265091Y-108530110D01*
X119227846Y-108498660D01*
X119183889Y-108479783D01*
X119131062Y-108473196D01*
X119078254Y-108479782D01*
X119034312Y-108498656D01*
X118997077Y-108530103D01*
X118965624Y-108576465D01*
X118940402Y-108641819D01*
X118923137Y-108731587D01*
X118916617Y-108852260D01*
X118773124Y-108852260D01*
X118779222Y-108729016D01*
X118795948Y-108629379D01*
X118821353Y-108549508D01*
X118854093Y-108486056D01*
X118893525Y-108436275D01*
X118939755Y-108398148D01*
X118993645Y-108370533D01*
X119056723Y-108353265D01*
X119131062Y-108347166D01*
X119205417Y-108353265D01*
G37*
G36*
X118417323Y-109330000D02*
G01*
X118690570Y-108360844D01*
X118544330Y-108360844D01*
X118317550Y-109213984D01*
X118305277Y-109213984D01*
X118078497Y-108360844D01*
X117932257Y-108360844D01*
X118205504Y-109330000D01*
X118417323Y-109330000D01*
G37*
G36*
X117792306Y-109330000D02*
G01*
X117792306Y-108360844D01*
X117655652Y-108360844D01*
X117655652Y-109330000D01*
X117792306Y-109330000D01*
G37*
G36*
X117792306Y-109330000D02*
G01*
X117792306Y-109200062D01*
X117150191Y-109200062D01*
X117150191Y-109330000D01*
X117792306Y-109330000D01*
G37*
G36*
X117792306Y-108907948D02*
G01*
X117792306Y-108778011D01*
X117273107Y-108778011D01*
X117273107Y-108907948D01*
X117792306Y-108907948D01*
G37*
G36*
X117792306Y-108490781D02*
G01*
X117792306Y-108360844D01*
X117150191Y-108360844D01*
X117150191Y-108490781D01*
X117792306Y-108490781D01*
G37*
G36*
X115910415Y-109006500D02*
G01*
X116245150Y-108360844D01*
X116094879Y-108360844D01*
X115858513Y-108845422D01*
X115846240Y-108845422D01*
X115609874Y-108360844D01*
X115459603Y-108360844D01*
X115794338Y-109006500D01*
X115910415Y-109006500D01*
G37*
G36*
X115920673Y-109330000D02*
G01*
X115920673Y-108852260D01*
X115784080Y-108852260D01*
X115784080Y-109330000D01*
X115920673Y-109330000D01*
G37*
G36*
X115107022Y-108353265D02*
G01*
X115170113Y-108370535D01*
X115224012Y-108398152D01*
X115270251Y-108436281D01*
X115309687Y-108486064D01*
X115342432Y-108549515D01*
X115367840Y-108629386D01*
X115384568Y-108729021D01*
X115390666Y-108852260D01*
X115384643Y-108971472D01*
X115368104Y-109068022D01*
X115342941Y-109145599D01*
X115310434Y-109207406D01*
X115271168Y-109256060D01*
X115224977Y-109293453D01*
X115170957Y-109320622D01*
X115107550Y-109337653D01*
X115032667Y-109343677D01*
X114957800Y-109337654D01*
X114894406Y-109320624D01*
X114840396Y-109293457D01*
X114794213Y-109256066D01*
X114754952Y-109207413D01*
X114722449Y-109145607D01*
X114697289Y-109068029D01*
X114680751Y-108971477D01*
X114674729Y-108852260D01*
X114818222Y-108852260D01*
X114824644Y-108967786D01*
X114841681Y-109053991D01*
X114866647Y-109117016D01*
X114897924Y-109161971D01*
X114935158Y-109192650D01*
X114979343Y-109211165D01*
X115032667Y-109217648D01*
X115086010Y-109211164D01*
X115130210Y-109192647D01*
X115167454Y-109161965D01*
X115198738Y-109117007D01*
X115223710Y-109053982D01*
X115240749Y-108967780D01*
X115247173Y-108852260D01*
X115240652Y-108731594D01*
X115223384Y-108641828D01*
X115198157Y-108576474D01*
X115166696Y-108530110D01*
X115129451Y-108498660D01*
X115085494Y-108479783D01*
X115032667Y-108473196D01*
X114979859Y-108479782D01*
X114935917Y-108498656D01*
X114898682Y-108530103D01*
X114867229Y-108576465D01*
X114842007Y-108641819D01*
X114824742Y-108731587D01*
X114818222Y-108852260D01*
X114674729Y-108852260D01*
X114680827Y-108729016D01*
X114697553Y-108629379D01*
X114722958Y-108549508D01*
X114755698Y-108486056D01*
X114795130Y-108436275D01*
X114841360Y-108398148D01*
X114895250Y-108370533D01*
X114958328Y-108353265D01*
X115032667Y-108347166D01*
X115107022Y-108353265D01*
G37*
G36*
X114215736Y-109343677D02*
G01*
X114293308Y-109337895D01*
X114356198Y-109321887D01*
X114407157Y-109296989D01*
X114448306Y-109263568D01*
X114480974Y-109220984D01*
X114505559Y-109167666D01*
X114521488Y-109101255D01*
X114527267Y-109018773D01*
X114527267Y-108360844D01*
X114390614Y-108360844D01*
X114390614Y-109018590D01*
X114385134Y-109081904D01*
X114370393Y-109129366D01*
X114347932Y-109164647D01*
X114316124Y-109190704D01*
X114272457Y-109207504D01*
X114212988Y-109213740D01*
X114156642Y-109207848D01*
X114113779Y-109191746D01*
X114081201Y-109166453D01*
X114057085Y-109131106D01*
X114041298Y-109083125D01*
X114035423Y-109018590D01*
X114035423Y-108360844D01*
X113898770Y-108360844D01*
X113898770Y-109018773D01*
X113904636Y-109100530D01*
X113920835Y-109166553D01*
X113945913Y-109219767D01*
X113979370Y-109262466D01*
X114021871Y-109296446D01*
X114073982Y-109321688D01*
X114137730Y-109337858D01*
X114215736Y-109343677D01*
G37*
G36*
X112503960Y-109343677D02*
G01*
X112592147Y-109337934D01*
X112666897Y-109321770D01*
X112730341Y-109296324D01*
X112784228Y-109262073D01*
X112829841Y-109218808D01*
X112866297Y-109168341D01*
X112896030Y-109107564D01*
X112918642Y-109034724D01*
X112933236Y-108947703D01*
X112938468Y-108844078D01*
X112933238Y-108747002D01*
X112918478Y-108663540D01*
X112895280Y-108591800D01*
X112864305Y-108530140D01*
X112825750Y-108477226D01*
X112778074Y-108431238D01*
X112723744Y-108395419D01*
X112661820Y-108369256D01*
X112590950Y-108352902D01*
X112509455Y-108347166D01*
X112442151Y-108350948D01*
X112383091Y-108361724D01*
X112331158Y-108378857D01*
X112283117Y-108403879D01*
X112246104Y-108433731D01*
X112218440Y-108468494D01*
X112320228Y-108569427D01*
X112355875Y-108528425D01*
X112399180Y-108498292D01*
X112448312Y-108479497D01*
X112501273Y-108473196D01*
X112568655Y-108479588D01*
X112625584Y-108497755D01*
X112674142Y-108527111D01*
X112715718Y-108568328D01*
X112747405Y-108617271D01*
X112771285Y-108676900D01*
X112786684Y-108749359D01*
X112792227Y-108837240D01*
X112786490Y-108934280D01*
X112770785Y-109011981D01*
X112746865Y-109073786D01*
X112715718Y-109122576D01*
X112674200Y-109163091D01*
X112623718Y-109192485D01*
X112562406Y-109211023D01*
X112487595Y-109217648D01*
X112424750Y-109214287D01*
X112373168Y-109205008D01*
X112292201Y-109183515D01*
X112238956Y-109302583D01*
X112339706Y-109327618D01*
X112414405Y-109339425D01*
X112503960Y-109343677D01*
G37*
G36*
X112368710Y-109302583D02*
G01*
X112368710Y-108844445D01*
X112238956Y-108844445D01*
X112238956Y-109302583D01*
X112368710Y-109302583D01*
G37*
G36*
X112566852Y-108974382D02*
G01*
X112566852Y-108844445D01*
X112243047Y-108844445D01*
X112243047Y-108974382D01*
X112566852Y-108974382D01*
G37*
G36*
X111822950Y-109330000D02*
G01*
X111822950Y-108360844D01*
X111686357Y-108360844D01*
X111686357Y-109330000D01*
X111822950Y-109330000D01*
G37*
G36*
X112049057Y-109330000D02*
G01*
X112049057Y-109200062D01*
X111458845Y-109200062D01*
X111458845Y-109330000D01*
X112049057Y-109330000D01*
G37*
G36*
X112049057Y-108490781D02*
G01*
X112049057Y-108360844D01*
X111458845Y-108360844D01*
X111458845Y-108490781D01*
X112049057Y-108490781D01*
G37*
G36*
X111008627Y-108353265D02*
G01*
X111071718Y-108370535D01*
X111125617Y-108398152D01*
X111171856Y-108436281D01*
X111211292Y-108486064D01*
X111244037Y-108549515D01*
X111269445Y-108629386D01*
X111286173Y-108729021D01*
X111292271Y-108852260D01*
X111286248Y-108971472D01*
X111269709Y-109068022D01*
X111244546Y-109145599D01*
X111212039Y-109207406D01*
X111172773Y-109256060D01*
X111126582Y-109293453D01*
X111072562Y-109320622D01*
X111009155Y-109337653D01*
X110934272Y-109343677D01*
X110859405Y-109337654D01*
X110796011Y-109320624D01*
X110742001Y-109293457D01*
X110695818Y-109256066D01*
X110656557Y-109207413D01*
X110624054Y-109145607D01*
X110598894Y-109068029D01*
X110582356Y-108971477D01*
X110576334Y-108852260D01*
X110719827Y-108852260D01*
X110726250Y-108967786D01*
X110743286Y-109053991D01*
X110768252Y-109117016D01*
X110799529Y-109161971D01*
X110836763Y-109192650D01*
X110880948Y-109211165D01*
X110934272Y-109217648D01*
X110987615Y-109211164D01*
X111031815Y-109192647D01*
X111069059Y-109161965D01*
X111100343Y-109117007D01*
X111125315Y-109053982D01*
X111142354Y-108967780D01*
X111148778Y-108852260D01*
X111142257Y-108731594D01*
X111124989Y-108641828D01*
X111099762Y-108576474D01*
X111068301Y-108530110D01*
X111031056Y-108498660D01*
X110987099Y-108479783D01*
X110934272Y-108473196D01*
X110881464Y-108479782D01*
X110837522Y-108498656D01*
X110800287Y-108530103D01*
X110768834Y-108576465D01*
X110743612Y-108641819D01*
X110726347Y-108731587D01*
X110719827Y-108852260D01*
X110576334Y-108852260D01*
X110582432Y-108729016D01*
X110599158Y-108629379D01*
X110624563Y-108549508D01*
X110657304Y-108486056D01*
X110696735Y-108436275D01*
X110742965Y-108398148D01*
X110796855Y-108370533D01*
X110859933Y-108353265D01*
X110934272Y-108347166D01*
X111008627Y-108353265D01*
G37*
G36*
X110220533Y-109330000D02*
G01*
X110493780Y-108360844D01*
X110347540Y-108360844D01*
X110120760Y-109213984D01*
X110108487Y-109213984D01*
X109881707Y-108360844D01*
X109735467Y-108360844D01*
X110008714Y-109330000D01*
X110220533Y-109330000D01*
G37*
G36*
X109674101Y-109330000D02*
G01*
X109394016Y-108360844D01*
X109195874Y-108360844D01*
X108915788Y-109330000D01*
X109059281Y-109330000D01*
X109288808Y-108478264D01*
X109301081Y-108478264D01*
X109530608Y-109330000D01*
X109674101Y-109330000D01*
G37*
G36*
X109544286Y-109095526D02*
G01*
X109544286Y-108965589D01*
X109052442Y-108965589D01*
X109052442Y-109095526D01*
X109544286Y-109095526D01*
G37*
G36*
X108338642Y-109330000D02*
G01*
X108639183Y-108592875D01*
X108702076Y-108592875D01*
X108702076Y-108360844D01*
X108611889Y-108360844D01*
X108311287Y-109097969D01*
X108277154Y-109097969D01*
X108277154Y-109330000D01*
X108338642Y-109330000D01*
G37*
G36*
X108784019Y-109330000D02*
G01*
X108784019Y-108360844D01*
X108652861Y-108360844D01*
X108652861Y-109330000D01*
X108784019Y-109330000D01*
G37*
G36*
X108297670Y-109330000D02*
G01*
X108297670Y-108360844D01*
X108166512Y-108360844D01*
X108166512Y-109330000D01*
X108297670Y-109330000D01*
G37*
G36*
X107518963Y-109330000D02*
G01*
X107819504Y-108592875D01*
X107882397Y-108592875D01*
X107882397Y-108360844D01*
X107792210Y-108360844D01*
X107491608Y-109097969D01*
X107457475Y-109097969D01*
X107457475Y-109330000D01*
X107518963Y-109330000D01*
G37*
G36*
X107964340Y-109330000D02*
G01*
X107964340Y-108360844D01*
X107833182Y-108360844D01*
X107833182Y-109330000D01*
X107964340Y-109330000D01*
G37*
G36*
X107477991Y-109330000D02*
G01*
X107477991Y-108360844D01*
X107346833Y-108360844D01*
X107346833Y-109330000D01*
X107477991Y-109330000D01*
G37*
G36*
X107215064Y-109330000D02*
G01*
X106934979Y-108360844D01*
X106736837Y-108360844D01*
X106456751Y-109330000D01*
X106600244Y-109330000D01*
X106829771Y-108478264D01*
X106842044Y-108478264D01*
X107071571Y-109330000D01*
X107215064Y-109330000D01*
G37*
G36*
X107085249Y-109095526D02*
G01*
X107085249Y-108965589D01*
X106593405Y-108965589D01*
X106593405Y-109095526D01*
X107085249Y-109095526D01*
G37*
M02*
