M48
; DRILL file {KiCad 9.0.6} date 2025-11-30T08:55:37-0500
; FORMAT={-:-/ absolute / metric / decimal}
; #@! TF.CreationDate,2025-11-30T08:55:37-05:00
; #@! TF.GenerationSoftware,Kicad,Pcbnew,9.0.6
; #@! TF.FileFunction,Plated,1,2,PTH
FMAT,2
METRIC
; #@! TA.AperFunction,Plated,PTH,ComponentDrill
T1C0.800
; #@! TA.AperFunction,Plated,PTH,ComponentDrill
T2C0.900
; #@! TA.AperFunction,Plated,PTH,ComponentDrill
T3C1.100
%
G90
G05
T1
X112.19Y-123.0
X116.0Y-112.42
X116.0Y-117.5
X118.54Y-114.96
X119.81Y-123.0
X131.0Y-88.5
X136.0Y-88.5
T2
X87.0Y-92.0
X89.54Y-92.0
X90.0Y-83.0
X92.54Y-83.0
X96.5Y-102.5
X98.0Y-78.0
X99.04Y-102.5
X100.54Y-78.0
X105.725Y-80.5
X108.265Y-80.5
X122.725Y-80.5
X124.0Y-110.5
X125.265Y-80.5
X126.54Y-110.5
X130.725Y-78.0
X132.225Y-102.5
X133.265Y-78.0
X134.765Y-102.5
X139.46Y-82.5
X141.0Y-93.5
X142.0Y-82.5
X143.54Y-93.5
T3
X94.0Y-89.0
X94.0Y-93.5
X100.5Y-89.0
X100.5Y-93.5
M30
