%TF.GenerationSoftware,KiCad,Pcbnew,9.0.6*%
%TF.CreationDate,2025-11-30T08:55:57-05:00*%
%TF.ProjectId,project-solder,70726f6a-6563-4742-9d73-6f6c6465722e,rev?*%
%TF.SameCoordinates,Original*%
%TF.FileFunction,Legend,Top*%
%TF.FilePolarity,Positive*%
%FSLAX46Y46*%
G04 Gerber Fmt 4.6, Leading zero omitted, Abs format (unit mm)*
G04 Created by KiCad (PCBNEW 9.0.6) date 2025-11-30 08:55:57*
%MOMM*%
%LPD*%
G01*
G04 APERTURE LIST*
%ADD10C,0.150000*%
%ADD11C,0.120000*%
G04 APERTURE END LIST*
D10*
X124055714Y-106994819D02*
X124055714Y-105994819D01*
X124055714Y-105994819D02*
X124293809Y-105994819D01*
X124293809Y-105994819D02*
X124436666Y-106042438D01*
X124436666Y-106042438D02*
X124531904Y-106137676D01*
X124531904Y-106137676D02*
X124579523Y-106232914D01*
X124579523Y-106232914D02*
X124627142Y-106423390D01*
X124627142Y-106423390D02*
X124627142Y-106566247D01*
X124627142Y-106566247D02*
X124579523Y-106756723D01*
X124579523Y-106756723D02*
X124531904Y-106851961D01*
X124531904Y-106851961D02*
X124436666Y-106947200D01*
X124436666Y-106947200D02*
X124293809Y-106994819D01*
X124293809Y-106994819D02*
X124055714Y-106994819D01*
X125579523Y-106994819D02*
X125008095Y-106994819D01*
X125293809Y-106994819D02*
X125293809Y-105994819D01*
X125293809Y-105994819D02*
X125198571Y-106137676D01*
X125198571Y-106137676D02*
X125103333Y-106232914D01*
X125103333Y-106232914D02*
X125008095Y-106280533D01*
X126531904Y-106994819D02*
X125960476Y-106994819D01*
X126246190Y-106994819D02*
X126246190Y-105994819D01*
X126246190Y-105994819D02*
X126150952Y-106137676D01*
X126150952Y-106137676D02*
X126055714Y-106232914D01*
X126055714Y-106232914D02*
X125960476Y-106280533D01*
X115344761Y-110864819D02*
X115011428Y-110388628D01*
X114773333Y-110864819D02*
X114773333Y-109864819D01*
X114773333Y-109864819D02*
X115154285Y-109864819D01*
X115154285Y-109864819D02*
X115249523Y-109912438D01*
X115249523Y-109912438D02*
X115297142Y-109960057D01*
X115297142Y-109960057D02*
X115344761Y-110055295D01*
X115344761Y-110055295D02*
X115344761Y-110198152D01*
X115344761Y-110198152D02*
X115297142Y-110293390D01*
X115297142Y-110293390D02*
X115249523Y-110341009D01*
X115249523Y-110341009D02*
X115154285Y-110388628D01*
X115154285Y-110388628D02*
X114773333Y-110388628D01*
X115630476Y-109864819D02*
X115963809Y-110864819D01*
X115963809Y-110864819D02*
X116297142Y-109864819D01*
X116582857Y-109960057D02*
X116630476Y-109912438D01*
X116630476Y-109912438D02*
X116725714Y-109864819D01*
X116725714Y-109864819D02*
X116963809Y-109864819D01*
X116963809Y-109864819D02*
X117059047Y-109912438D01*
X117059047Y-109912438D02*
X117106666Y-109960057D01*
X117106666Y-109960057D02*
X117154285Y-110055295D01*
X117154285Y-110055295D02*
X117154285Y-110150533D01*
X117154285Y-110150533D02*
X117106666Y-110293390D01*
X117106666Y-110293390D02*
X116535238Y-110864819D01*
X116535238Y-110864819D02*
X117154285Y-110864819D01*
X90531905Y-79494819D02*
X90531905Y-78494819D01*
X90531905Y-78494819D02*
X90770000Y-78494819D01*
X90770000Y-78494819D02*
X90912857Y-78542438D01*
X90912857Y-78542438D02*
X91008095Y-78637676D01*
X91008095Y-78637676D02*
X91055714Y-78732914D01*
X91055714Y-78732914D02*
X91103333Y-78923390D01*
X91103333Y-78923390D02*
X91103333Y-79066247D01*
X91103333Y-79066247D02*
X91055714Y-79256723D01*
X91055714Y-79256723D02*
X91008095Y-79351961D01*
X91008095Y-79351961D02*
X90912857Y-79447200D01*
X90912857Y-79447200D02*
X90770000Y-79494819D01*
X90770000Y-79494819D02*
X90531905Y-79494819D01*
X91960476Y-78494819D02*
X91770000Y-78494819D01*
X91770000Y-78494819D02*
X91674762Y-78542438D01*
X91674762Y-78542438D02*
X91627143Y-78590057D01*
X91627143Y-78590057D02*
X91531905Y-78732914D01*
X91531905Y-78732914D02*
X91484286Y-78923390D01*
X91484286Y-78923390D02*
X91484286Y-79304342D01*
X91484286Y-79304342D02*
X91531905Y-79399580D01*
X91531905Y-79399580D02*
X91579524Y-79447200D01*
X91579524Y-79447200D02*
X91674762Y-79494819D01*
X91674762Y-79494819D02*
X91865238Y-79494819D01*
X91865238Y-79494819D02*
X91960476Y-79447200D01*
X91960476Y-79447200D02*
X92008095Y-79399580D01*
X92008095Y-79399580D02*
X92055714Y-79304342D01*
X92055714Y-79304342D02*
X92055714Y-79066247D01*
X92055714Y-79066247D02*
X92008095Y-78971009D01*
X92008095Y-78971009D02*
X91960476Y-78923390D01*
X91960476Y-78923390D02*
X91865238Y-78875771D01*
X91865238Y-78875771D02*
X91674762Y-78875771D01*
X91674762Y-78875771D02*
X91579524Y-78923390D01*
X91579524Y-78923390D02*
X91531905Y-78971009D01*
X91531905Y-78971009D02*
X91484286Y-79066247D01*
X115833333Y-121084819D02*
X115500000Y-120608628D01*
X115261905Y-121084819D02*
X115261905Y-120084819D01*
X115261905Y-120084819D02*
X115642857Y-120084819D01*
X115642857Y-120084819D02*
X115738095Y-120132438D01*
X115738095Y-120132438D02*
X115785714Y-120180057D01*
X115785714Y-120180057D02*
X115833333Y-120275295D01*
X115833333Y-120275295D02*
X115833333Y-120418152D01*
X115833333Y-120418152D02*
X115785714Y-120513390D01*
X115785714Y-120513390D02*
X115738095Y-120561009D01*
X115738095Y-120561009D02*
X115642857Y-120608628D01*
X115642857Y-120608628D02*
X115261905Y-120608628D01*
X116785714Y-121084819D02*
X116214286Y-121084819D01*
X116500000Y-121084819D02*
X116500000Y-120084819D01*
X116500000Y-120084819D02*
X116404762Y-120227676D01*
X116404762Y-120227676D02*
X116309524Y-120322914D01*
X116309524Y-120322914D02*
X116214286Y-120370533D01*
X96555714Y-98994819D02*
X96555714Y-97994819D01*
X96555714Y-97994819D02*
X96793809Y-97994819D01*
X96793809Y-97994819D02*
X96936666Y-98042438D01*
X96936666Y-98042438D02*
X97031904Y-98137676D01*
X97031904Y-98137676D02*
X97079523Y-98232914D01*
X97079523Y-98232914D02*
X97127142Y-98423390D01*
X97127142Y-98423390D02*
X97127142Y-98566247D01*
X97127142Y-98566247D02*
X97079523Y-98756723D01*
X97079523Y-98756723D02*
X97031904Y-98851961D01*
X97031904Y-98851961D02*
X96936666Y-98947200D01*
X96936666Y-98947200D02*
X96793809Y-98994819D01*
X96793809Y-98994819D02*
X96555714Y-98994819D01*
X98079523Y-98994819D02*
X97508095Y-98994819D01*
X97793809Y-98994819D02*
X97793809Y-97994819D01*
X97793809Y-97994819D02*
X97698571Y-98137676D01*
X97698571Y-98137676D02*
X97603333Y-98232914D01*
X97603333Y-98232914D02*
X97508095Y-98280533D01*
X98698571Y-97994819D02*
X98793809Y-97994819D01*
X98793809Y-97994819D02*
X98889047Y-98042438D01*
X98889047Y-98042438D02*
X98936666Y-98090057D01*
X98936666Y-98090057D02*
X98984285Y-98185295D01*
X98984285Y-98185295D02*
X99031904Y-98375771D01*
X99031904Y-98375771D02*
X99031904Y-98613866D01*
X99031904Y-98613866D02*
X98984285Y-98804342D01*
X98984285Y-98804342D02*
X98936666Y-98899580D01*
X98936666Y-98899580D02*
X98889047Y-98947200D01*
X98889047Y-98947200D02*
X98793809Y-98994819D01*
X98793809Y-98994819D02*
X98698571Y-98994819D01*
X98698571Y-98994819D02*
X98603333Y-98947200D01*
X98603333Y-98947200D02*
X98555714Y-98899580D01*
X98555714Y-98899580D02*
X98508095Y-98804342D01*
X98508095Y-98804342D02*
X98460476Y-98613866D01*
X98460476Y-98613866D02*
X98460476Y-98375771D01*
X98460476Y-98375771D02*
X98508095Y-98185295D01*
X98508095Y-98185295D02*
X98555714Y-98090057D01*
X98555714Y-98090057D02*
X98603333Y-98042438D01*
X98603333Y-98042438D02*
X98698571Y-97994819D01*
X87531905Y-88494819D02*
X87531905Y-87494819D01*
X87531905Y-87494819D02*
X87770000Y-87494819D01*
X87770000Y-87494819D02*
X87912857Y-87542438D01*
X87912857Y-87542438D02*
X88008095Y-87637676D01*
X88008095Y-87637676D02*
X88055714Y-87732914D01*
X88055714Y-87732914D02*
X88103333Y-87923390D01*
X88103333Y-87923390D02*
X88103333Y-88066247D01*
X88103333Y-88066247D02*
X88055714Y-88256723D01*
X88055714Y-88256723D02*
X88008095Y-88351961D01*
X88008095Y-88351961D02*
X87912857Y-88447200D01*
X87912857Y-88447200D02*
X87770000Y-88494819D01*
X87770000Y-88494819D02*
X87531905Y-88494819D01*
X88674762Y-87923390D02*
X88579524Y-87875771D01*
X88579524Y-87875771D02*
X88531905Y-87828152D01*
X88531905Y-87828152D02*
X88484286Y-87732914D01*
X88484286Y-87732914D02*
X88484286Y-87685295D01*
X88484286Y-87685295D02*
X88531905Y-87590057D01*
X88531905Y-87590057D02*
X88579524Y-87542438D01*
X88579524Y-87542438D02*
X88674762Y-87494819D01*
X88674762Y-87494819D02*
X88865238Y-87494819D01*
X88865238Y-87494819D02*
X88960476Y-87542438D01*
X88960476Y-87542438D02*
X89008095Y-87590057D01*
X89008095Y-87590057D02*
X89055714Y-87685295D01*
X89055714Y-87685295D02*
X89055714Y-87732914D01*
X89055714Y-87732914D02*
X89008095Y-87828152D01*
X89008095Y-87828152D02*
X88960476Y-87875771D01*
X88960476Y-87875771D02*
X88865238Y-87923390D01*
X88865238Y-87923390D02*
X88674762Y-87923390D01*
X88674762Y-87923390D02*
X88579524Y-87971009D01*
X88579524Y-87971009D02*
X88531905Y-88018628D01*
X88531905Y-88018628D02*
X88484286Y-88113866D01*
X88484286Y-88113866D02*
X88484286Y-88304342D01*
X88484286Y-88304342D02*
X88531905Y-88399580D01*
X88531905Y-88399580D02*
X88579524Y-88447200D01*
X88579524Y-88447200D02*
X88674762Y-88494819D01*
X88674762Y-88494819D02*
X88865238Y-88494819D01*
X88865238Y-88494819D02*
X88960476Y-88447200D01*
X88960476Y-88447200D02*
X89008095Y-88399580D01*
X89008095Y-88399580D02*
X89055714Y-88304342D01*
X89055714Y-88304342D02*
X89055714Y-88113866D01*
X89055714Y-88113866D02*
X89008095Y-88018628D01*
X89008095Y-88018628D02*
X88960476Y-87971009D01*
X88960476Y-87971009D02*
X88865238Y-87923390D01*
X98531905Y-74494819D02*
X98531905Y-73494819D01*
X98531905Y-73494819D02*
X98770000Y-73494819D01*
X98770000Y-73494819D02*
X98912857Y-73542438D01*
X98912857Y-73542438D02*
X99008095Y-73637676D01*
X99008095Y-73637676D02*
X99055714Y-73732914D01*
X99055714Y-73732914D02*
X99103333Y-73923390D01*
X99103333Y-73923390D02*
X99103333Y-74066247D01*
X99103333Y-74066247D02*
X99055714Y-74256723D01*
X99055714Y-74256723D02*
X99008095Y-74351961D01*
X99008095Y-74351961D02*
X98912857Y-74447200D01*
X98912857Y-74447200D02*
X98770000Y-74494819D01*
X98770000Y-74494819D02*
X98531905Y-74494819D01*
X100008095Y-73494819D02*
X99531905Y-73494819D01*
X99531905Y-73494819D02*
X99484286Y-73971009D01*
X99484286Y-73971009D02*
X99531905Y-73923390D01*
X99531905Y-73923390D02*
X99627143Y-73875771D01*
X99627143Y-73875771D02*
X99865238Y-73875771D01*
X99865238Y-73875771D02*
X99960476Y-73923390D01*
X99960476Y-73923390D02*
X100008095Y-73971009D01*
X100008095Y-73971009D02*
X100055714Y-74066247D01*
X100055714Y-74066247D02*
X100055714Y-74304342D01*
X100055714Y-74304342D02*
X100008095Y-74399580D01*
X100008095Y-74399580D02*
X99960476Y-74447200D01*
X99960476Y-74447200D02*
X99865238Y-74494819D01*
X99865238Y-74494819D02*
X99627143Y-74494819D01*
X99627143Y-74494819D02*
X99531905Y-74447200D01*
X99531905Y-74447200D02*
X99484286Y-74399580D01*
X139991905Y-78994819D02*
X139991905Y-77994819D01*
X139991905Y-77994819D02*
X140230000Y-77994819D01*
X140230000Y-77994819D02*
X140372857Y-78042438D01*
X140372857Y-78042438D02*
X140468095Y-78137676D01*
X140468095Y-78137676D02*
X140515714Y-78232914D01*
X140515714Y-78232914D02*
X140563333Y-78423390D01*
X140563333Y-78423390D02*
X140563333Y-78566247D01*
X140563333Y-78566247D02*
X140515714Y-78756723D01*
X140515714Y-78756723D02*
X140468095Y-78851961D01*
X140468095Y-78851961D02*
X140372857Y-78947200D01*
X140372857Y-78947200D02*
X140230000Y-78994819D01*
X140230000Y-78994819D02*
X139991905Y-78994819D01*
X140896667Y-77994819D02*
X141515714Y-77994819D01*
X141515714Y-77994819D02*
X141182381Y-78375771D01*
X141182381Y-78375771D02*
X141325238Y-78375771D01*
X141325238Y-78375771D02*
X141420476Y-78423390D01*
X141420476Y-78423390D02*
X141468095Y-78471009D01*
X141468095Y-78471009D02*
X141515714Y-78566247D01*
X141515714Y-78566247D02*
X141515714Y-78804342D01*
X141515714Y-78804342D02*
X141468095Y-78899580D01*
X141468095Y-78899580D02*
X141420476Y-78947200D01*
X141420476Y-78947200D02*
X141325238Y-78994819D01*
X141325238Y-78994819D02*
X141039524Y-78994819D01*
X141039524Y-78994819D02*
X140944286Y-78947200D01*
X140944286Y-78947200D02*
X140896667Y-78899580D01*
X133333333Y-83609580D02*
X133285714Y-83657200D01*
X133285714Y-83657200D02*
X133142857Y-83704819D01*
X133142857Y-83704819D02*
X133047619Y-83704819D01*
X133047619Y-83704819D02*
X132904762Y-83657200D01*
X132904762Y-83657200D02*
X132809524Y-83561961D01*
X132809524Y-83561961D02*
X132761905Y-83466723D01*
X132761905Y-83466723D02*
X132714286Y-83276247D01*
X132714286Y-83276247D02*
X132714286Y-83133390D01*
X132714286Y-83133390D02*
X132761905Y-82942914D01*
X132761905Y-82942914D02*
X132809524Y-82847676D01*
X132809524Y-82847676D02*
X132904762Y-82752438D01*
X132904762Y-82752438D02*
X133047619Y-82704819D01*
X133047619Y-82704819D02*
X133142857Y-82704819D01*
X133142857Y-82704819D02*
X133285714Y-82752438D01*
X133285714Y-82752438D02*
X133333333Y-82800057D01*
X134285714Y-83704819D02*
X133714286Y-83704819D01*
X134000000Y-83704819D02*
X134000000Y-82704819D01*
X134000000Y-82704819D02*
X133904762Y-82847676D01*
X133904762Y-82847676D02*
X133809524Y-82942914D01*
X133809524Y-82942914D02*
X133714286Y-82990533D01*
X106256905Y-76994819D02*
X106256905Y-75994819D01*
X106256905Y-75994819D02*
X106495000Y-75994819D01*
X106495000Y-75994819D02*
X106637857Y-76042438D01*
X106637857Y-76042438D02*
X106733095Y-76137676D01*
X106733095Y-76137676D02*
X106780714Y-76232914D01*
X106780714Y-76232914D02*
X106828333Y-76423390D01*
X106828333Y-76423390D02*
X106828333Y-76566247D01*
X106828333Y-76566247D02*
X106780714Y-76756723D01*
X106780714Y-76756723D02*
X106733095Y-76851961D01*
X106733095Y-76851961D02*
X106637857Y-76947200D01*
X106637857Y-76947200D02*
X106495000Y-76994819D01*
X106495000Y-76994819D02*
X106256905Y-76994819D01*
X107685476Y-76328152D02*
X107685476Y-76994819D01*
X107447381Y-75947200D02*
X107209286Y-76661485D01*
X107209286Y-76661485D02*
X107828333Y-76661485D01*
X132756905Y-98994819D02*
X132756905Y-97994819D01*
X132756905Y-97994819D02*
X132995000Y-97994819D01*
X132995000Y-97994819D02*
X133137857Y-98042438D01*
X133137857Y-98042438D02*
X133233095Y-98137676D01*
X133233095Y-98137676D02*
X133280714Y-98232914D01*
X133280714Y-98232914D02*
X133328333Y-98423390D01*
X133328333Y-98423390D02*
X133328333Y-98566247D01*
X133328333Y-98566247D02*
X133280714Y-98756723D01*
X133280714Y-98756723D02*
X133233095Y-98851961D01*
X133233095Y-98851961D02*
X133137857Y-98947200D01*
X133137857Y-98947200D02*
X132995000Y-98994819D01*
X132995000Y-98994819D02*
X132756905Y-98994819D01*
X133804524Y-98994819D02*
X133995000Y-98994819D01*
X133995000Y-98994819D02*
X134090238Y-98947200D01*
X134090238Y-98947200D02*
X134137857Y-98899580D01*
X134137857Y-98899580D02*
X134233095Y-98756723D01*
X134233095Y-98756723D02*
X134280714Y-98566247D01*
X134280714Y-98566247D02*
X134280714Y-98185295D01*
X134280714Y-98185295D02*
X134233095Y-98090057D01*
X134233095Y-98090057D02*
X134185476Y-98042438D01*
X134185476Y-98042438D02*
X134090238Y-97994819D01*
X134090238Y-97994819D02*
X133899762Y-97994819D01*
X133899762Y-97994819D02*
X133804524Y-98042438D01*
X133804524Y-98042438D02*
X133756905Y-98090057D01*
X133756905Y-98090057D02*
X133709286Y-98185295D01*
X133709286Y-98185295D02*
X133709286Y-98423390D01*
X133709286Y-98423390D02*
X133756905Y-98518628D01*
X133756905Y-98518628D02*
X133804524Y-98566247D01*
X133804524Y-98566247D02*
X133899762Y-98613866D01*
X133899762Y-98613866D02*
X134090238Y-98613866D01*
X134090238Y-98613866D02*
X134185476Y-98566247D01*
X134185476Y-98566247D02*
X134233095Y-98518628D01*
X134233095Y-98518628D02*
X134280714Y-98423390D01*
X131256905Y-74494819D02*
X131256905Y-73494819D01*
X131256905Y-73494819D02*
X131495000Y-73494819D01*
X131495000Y-73494819D02*
X131637857Y-73542438D01*
X131637857Y-73542438D02*
X131733095Y-73637676D01*
X131733095Y-73637676D02*
X131780714Y-73732914D01*
X131780714Y-73732914D02*
X131828333Y-73923390D01*
X131828333Y-73923390D02*
X131828333Y-74066247D01*
X131828333Y-74066247D02*
X131780714Y-74256723D01*
X131780714Y-74256723D02*
X131733095Y-74351961D01*
X131733095Y-74351961D02*
X131637857Y-74447200D01*
X131637857Y-74447200D02*
X131495000Y-74494819D01*
X131495000Y-74494819D02*
X131256905Y-74494819D01*
X132209286Y-73590057D02*
X132256905Y-73542438D01*
X132256905Y-73542438D02*
X132352143Y-73494819D01*
X132352143Y-73494819D02*
X132590238Y-73494819D01*
X132590238Y-73494819D02*
X132685476Y-73542438D01*
X132685476Y-73542438D02*
X132733095Y-73590057D01*
X132733095Y-73590057D02*
X132780714Y-73685295D01*
X132780714Y-73685295D02*
X132780714Y-73780533D01*
X132780714Y-73780533D02*
X132733095Y-73923390D01*
X132733095Y-73923390D02*
X132161667Y-74494819D01*
X132161667Y-74494819D02*
X132780714Y-74494819D01*
X114714285Y-83431009D02*
X114857142Y-83478628D01*
X114857142Y-83478628D02*
X114904761Y-83526247D01*
X114904761Y-83526247D02*
X114952380Y-83621485D01*
X114952380Y-83621485D02*
X114952380Y-83764342D01*
X114952380Y-83764342D02*
X114904761Y-83859580D01*
X114904761Y-83859580D02*
X114857142Y-83907200D01*
X114857142Y-83907200D02*
X114761904Y-83954819D01*
X114761904Y-83954819D02*
X114380952Y-83954819D01*
X114380952Y-83954819D02*
X114380952Y-82954819D01*
X114380952Y-82954819D02*
X114714285Y-82954819D01*
X114714285Y-82954819D02*
X114809523Y-83002438D01*
X114809523Y-83002438D02*
X114857142Y-83050057D01*
X114857142Y-83050057D02*
X114904761Y-83145295D01*
X114904761Y-83145295D02*
X114904761Y-83240533D01*
X114904761Y-83240533D02*
X114857142Y-83335771D01*
X114857142Y-83335771D02*
X114809523Y-83383390D01*
X114809523Y-83383390D02*
X114714285Y-83431009D01*
X114714285Y-83431009D02*
X114380952Y-83431009D01*
X115238095Y-82954819D02*
X115809523Y-82954819D01*
X115523809Y-83954819D02*
X115523809Y-82954819D01*
X116666666Y-83954819D02*
X116095238Y-83954819D01*
X116380952Y-83954819D02*
X116380952Y-82954819D01*
X116380952Y-82954819D02*
X116285714Y-83097676D01*
X116285714Y-83097676D02*
X116190476Y-83192914D01*
X116190476Y-83192914D02*
X116095238Y-83240533D01*
X95916667Y-87407200D02*
X96059524Y-87454819D01*
X96059524Y-87454819D02*
X96297619Y-87454819D01*
X96297619Y-87454819D02*
X96392857Y-87407200D01*
X96392857Y-87407200D02*
X96440476Y-87359580D01*
X96440476Y-87359580D02*
X96488095Y-87264342D01*
X96488095Y-87264342D02*
X96488095Y-87169104D01*
X96488095Y-87169104D02*
X96440476Y-87073866D01*
X96440476Y-87073866D02*
X96392857Y-87026247D01*
X96392857Y-87026247D02*
X96297619Y-86978628D01*
X96297619Y-86978628D02*
X96107143Y-86931009D01*
X96107143Y-86931009D02*
X96011905Y-86883390D01*
X96011905Y-86883390D02*
X95964286Y-86835771D01*
X95964286Y-86835771D02*
X95916667Y-86740533D01*
X95916667Y-86740533D02*
X95916667Y-86645295D01*
X95916667Y-86645295D02*
X95964286Y-86550057D01*
X95964286Y-86550057D02*
X96011905Y-86502438D01*
X96011905Y-86502438D02*
X96107143Y-86454819D01*
X96107143Y-86454819D02*
X96345238Y-86454819D01*
X96345238Y-86454819D02*
X96488095Y-86502438D01*
X96821429Y-86454819D02*
X97059524Y-87454819D01*
X97059524Y-87454819D02*
X97250000Y-86740533D01*
X97250000Y-86740533D02*
X97440476Y-87454819D01*
X97440476Y-87454819D02*
X97678572Y-86454819D01*
X98583333Y-87454819D02*
X98011905Y-87454819D01*
X98297619Y-87454819D02*
X98297619Y-86454819D01*
X98297619Y-86454819D02*
X98202381Y-86597676D01*
X98202381Y-86597676D02*
X98107143Y-86692914D01*
X98107143Y-86692914D02*
X98011905Y-86740533D01*
X141531905Y-89994819D02*
X141531905Y-88994819D01*
X141531905Y-88994819D02*
X141770000Y-88994819D01*
X141770000Y-88994819D02*
X141912857Y-89042438D01*
X141912857Y-89042438D02*
X142008095Y-89137676D01*
X142008095Y-89137676D02*
X142055714Y-89232914D01*
X142055714Y-89232914D02*
X142103333Y-89423390D01*
X142103333Y-89423390D02*
X142103333Y-89566247D01*
X142103333Y-89566247D02*
X142055714Y-89756723D01*
X142055714Y-89756723D02*
X142008095Y-89851961D01*
X142008095Y-89851961D02*
X141912857Y-89947200D01*
X141912857Y-89947200D02*
X141770000Y-89994819D01*
X141770000Y-89994819D02*
X141531905Y-89994819D01*
X142436667Y-88994819D02*
X143103333Y-88994819D01*
X143103333Y-88994819D02*
X142674762Y-89994819D01*
X123256905Y-76994819D02*
X123256905Y-75994819D01*
X123256905Y-75994819D02*
X123495000Y-75994819D01*
X123495000Y-75994819D02*
X123637857Y-76042438D01*
X123637857Y-76042438D02*
X123733095Y-76137676D01*
X123733095Y-76137676D02*
X123780714Y-76232914D01*
X123780714Y-76232914D02*
X123828333Y-76423390D01*
X123828333Y-76423390D02*
X123828333Y-76566247D01*
X123828333Y-76566247D02*
X123780714Y-76756723D01*
X123780714Y-76756723D02*
X123733095Y-76851961D01*
X123733095Y-76851961D02*
X123637857Y-76947200D01*
X123637857Y-76947200D02*
X123495000Y-76994819D01*
X123495000Y-76994819D02*
X123256905Y-76994819D01*
X124780714Y-76994819D02*
X124209286Y-76994819D01*
X124495000Y-76994819D02*
X124495000Y-75994819D01*
X124495000Y-75994819D02*
X124399762Y-76137676D01*
X124399762Y-76137676D02*
X124304524Y-76232914D01*
X124304524Y-76232914D02*
X124209286Y-76280533D01*
D11*
%TO.C,D11*%
X122710000Y-108955000D02*
X122710000Y-112045000D01*
X122710000Y-108955170D02*
G75*
G02*
X128260000Y-110500000I2560000J-1544830D01*
G01*
X128260000Y-110500000D02*
G75*
G02*
X122710000Y-112044830I-2990000J0D01*
G01*
X127770000Y-110500000D02*
G75*
G02*
X122770000Y-110500000I-2500000J0D01*
G01*
X122770000Y-110500000D02*
G75*
G02*
X127770000Y-110500000I2500000J0D01*
G01*
%TO.C,RV2*%
X112330000Y-111550000D02*
X115618000Y-111550000D01*
X112330000Y-118370000D02*
X112330000Y-111550000D01*
X115618000Y-118370000D02*
X112330000Y-118370000D01*
X116382000Y-111550000D02*
X119550000Y-111550000D01*
X119550000Y-111550000D02*
X119550000Y-118370000D01*
X119550000Y-118370000D02*
X116382000Y-118370000D01*
%TO.C,D6*%
X88710000Y-81455000D02*
X88710000Y-84545000D01*
X88710000Y-81455170D02*
G75*
G02*
X94260000Y-83000000I2560000J-1544830D01*
G01*
X94260000Y-83000000D02*
G75*
G02*
X88710000Y-84544830I-2990000J0D01*
G01*
X93770000Y-83000000D02*
G75*
G02*
X88770000Y-83000000I-2500000J0D01*
G01*
X88770000Y-83000000D02*
G75*
G02*
X93770000Y-83000000I2500000J0D01*
G01*
%TO.C,R1*%
X112730000Y-121630000D02*
X119270000Y-121630000D01*
X112730000Y-121960000D02*
X112730000Y-121630000D01*
X112730000Y-124040000D02*
X112730000Y-124370000D01*
X112730000Y-124370000D02*
X119270000Y-124370000D01*
X119270000Y-121630000D02*
X119270000Y-121960000D01*
X119270000Y-124370000D02*
X119270000Y-124040000D01*
%TO.C,D10*%
X95210000Y-100955000D02*
X95210000Y-104045000D01*
X95210000Y-100955170D02*
G75*
G02*
X100760000Y-102500000I2560000J-1544830D01*
G01*
X100760000Y-102500000D02*
G75*
G02*
X95210000Y-104044830I-2990000J0D01*
G01*
X100270000Y-102500000D02*
G75*
G02*
X95270000Y-102500000I-2500000J0D01*
G01*
X95270000Y-102500000D02*
G75*
G02*
X100270000Y-102500000I2500000J0D01*
G01*
%TO.C,D8*%
X85710000Y-90455000D02*
X85710000Y-93545000D01*
X85710000Y-90455170D02*
G75*
G02*
X91260000Y-92000000I2560000J-1544830D01*
G01*
X91260000Y-92000000D02*
G75*
G02*
X85710000Y-93544830I-2990000J0D01*
G01*
X90770000Y-92000000D02*
G75*
G02*
X85770000Y-92000000I-2500000J0D01*
G01*
X85770000Y-92000000D02*
G75*
G02*
X90770000Y-92000000I2500000J0D01*
G01*
%TO.C,D5*%
X96710000Y-76455000D02*
X96710000Y-79545000D01*
X96710000Y-76455170D02*
G75*
G02*
X102260000Y-78000000I2560000J-1544830D01*
G01*
X102260000Y-78000000D02*
G75*
G02*
X96710000Y-79544830I-2990000J0D01*
G01*
X101770000Y-78000000D02*
G75*
G02*
X96770000Y-78000000I-2500000J0D01*
G01*
X96770000Y-78000000D02*
G75*
G02*
X101770000Y-78000000I2500000J0D01*
G01*
%TO.C,D3*%
X138170000Y-80955000D02*
X138170000Y-84045000D01*
X138170000Y-80955170D02*
G75*
G02*
X143720000Y-82500000I2560000J-1544830D01*
G01*
X143720000Y-82500000D02*
G75*
G02*
X138170000Y-84044830I-2990000J0D01*
G01*
X143230000Y-82500000D02*
G75*
G02*
X138230000Y-82500000I-2500000J0D01*
G01*
X138230000Y-82500000D02*
G75*
G02*
X143230000Y-82500000I2500000J0D01*
G01*
%TO.C,C1*%
X129090302Y-86185000D02*
X129890302Y-86185000D01*
X129490302Y-85785000D02*
X129490302Y-86585000D01*
X133500000Y-84420000D02*
X133500000Y-92580000D01*
X133540000Y-84420000D02*
X133540000Y-92580000D01*
X133580000Y-84421000D02*
X133580000Y-92579000D01*
X133620000Y-84422000D02*
X133620000Y-92578000D01*
X133660000Y-84423000D02*
X133660000Y-92577000D01*
X133700000Y-84425000D02*
X133700000Y-92575000D01*
X133740000Y-84427000D02*
X133740000Y-92573000D01*
X133780000Y-84430000D02*
X133780000Y-92570000D01*
X133820000Y-84432000D02*
X133820000Y-92568000D01*
X133860000Y-84436000D02*
X133860000Y-92564000D01*
X133900000Y-84439000D02*
X133900000Y-92561000D01*
X133940000Y-84444000D02*
X133940000Y-92556000D01*
X133980000Y-84448000D02*
X133980000Y-92552000D01*
X134020000Y-84453000D02*
X134020000Y-92547000D01*
X134060000Y-84458000D02*
X134060000Y-92542000D01*
X134100000Y-84464000D02*
X134100000Y-92536000D01*
X134140000Y-84470000D02*
X134140000Y-92530000D01*
X134180000Y-84477000D02*
X134180000Y-92523000D01*
X134220000Y-84483000D02*
X134220000Y-92517000D01*
X134260000Y-84491000D02*
X134260000Y-92509000D01*
X134300000Y-84498000D02*
X134300000Y-92502000D01*
X134340000Y-84507000D02*
X134340000Y-92493000D01*
X134380000Y-84515000D02*
X134380000Y-92485000D01*
X134420000Y-84524000D02*
X134420000Y-92476000D01*
X134460000Y-84533000D02*
X134460000Y-92467000D01*
X134500000Y-84543000D02*
X134500000Y-92457000D01*
X134540000Y-84553000D02*
X134540000Y-92447000D01*
X134580000Y-84564000D02*
X134580000Y-92436000D01*
X134620000Y-84575000D02*
X134620000Y-92425000D01*
X134660000Y-84587000D02*
X134660000Y-92413000D01*
X134700000Y-84599000D02*
X134700000Y-92401000D01*
X134740000Y-84611000D02*
X134740000Y-92389000D01*
X134780000Y-84624000D02*
X134780000Y-92376000D01*
X134820000Y-84637000D02*
X134820000Y-92363000D01*
X134860000Y-84651000D02*
X134860000Y-92349000D01*
X134900000Y-84665000D02*
X134900000Y-92335000D01*
X134940000Y-84680000D02*
X134940000Y-92320000D01*
X134980000Y-84695000D02*
X134980000Y-87460000D01*
X134980000Y-89540000D02*
X134980000Y-92305000D01*
X135020000Y-84711000D02*
X135020000Y-87460000D01*
X135020000Y-89540000D02*
X135020000Y-92289000D01*
X135060000Y-84727000D02*
X135060000Y-87460000D01*
X135060000Y-89540000D02*
X135060000Y-92273000D01*
X135100000Y-84743000D02*
X135100000Y-87460000D01*
X135100000Y-89540000D02*
X135100000Y-92257000D01*
X135140000Y-84760000D02*
X135140000Y-87460000D01*
X135140000Y-89540000D02*
X135140000Y-92240000D01*
X135180000Y-84778000D02*
X135180000Y-87460000D01*
X135180000Y-89540000D02*
X135180000Y-92222000D01*
X135220000Y-84796000D02*
X135220000Y-87460000D01*
X135220000Y-89540000D02*
X135220000Y-92204000D01*
X135260000Y-84815000D02*
X135260000Y-87460000D01*
X135260000Y-89540000D02*
X135260000Y-92185000D01*
X135300000Y-84834000D02*
X135300000Y-87460000D01*
X135300000Y-89540000D02*
X135300000Y-92166000D01*
X135340000Y-84854000D02*
X135340000Y-87460000D01*
X135340000Y-89540000D02*
X135340000Y-92146000D01*
X135380000Y-84874000D02*
X135380000Y-87460000D01*
X135380000Y-89540000D02*
X135380000Y-92126000D01*
X135420000Y-84895000D02*
X135420000Y-87460000D01*
X135420000Y-89540000D02*
X135420000Y-92105000D01*
X135460000Y-84916000D02*
X135460000Y-87460000D01*
X135460000Y-89540000D02*
X135460000Y-92084000D01*
X135500000Y-84938000D02*
X135500000Y-87460000D01*
X135500000Y-89540000D02*
X135500000Y-92062000D01*
X135540000Y-84961000D02*
X135540000Y-87460000D01*
X135540000Y-89540000D02*
X135540000Y-92039000D01*
X135580000Y-84984000D02*
X135580000Y-87460000D01*
X135580000Y-89540000D02*
X135580000Y-92016000D01*
X135620000Y-85007000D02*
X135620000Y-87460000D01*
X135620000Y-89540000D02*
X135620000Y-91993000D01*
X135660000Y-85032000D02*
X135660000Y-87460000D01*
X135660000Y-89540000D02*
X135660000Y-91968000D01*
X135700000Y-85057000D02*
X135700000Y-87460000D01*
X135700000Y-89540000D02*
X135700000Y-91943000D01*
X135740000Y-85082000D02*
X135740000Y-87460000D01*
X135740000Y-89540000D02*
X135740000Y-91918000D01*
X135780000Y-85108000D02*
X135780000Y-87460000D01*
X135780000Y-89540000D02*
X135780000Y-91892000D01*
X135820000Y-85135000D02*
X135820000Y-87460000D01*
X135820000Y-89540000D02*
X135820000Y-91865000D01*
X135860000Y-85163000D02*
X135860000Y-87460000D01*
X135860000Y-89540000D02*
X135860000Y-91837000D01*
X135900000Y-85191000D02*
X135900000Y-87460000D01*
X135900000Y-89540000D02*
X135900000Y-91809000D01*
X135940000Y-85220000D02*
X135940000Y-87460000D01*
X135940000Y-89540000D02*
X135940000Y-91780000D01*
X135980000Y-85250000D02*
X135980000Y-87460000D01*
X135980000Y-89540000D02*
X135980000Y-91750000D01*
X136020000Y-85281000D02*
X136020000Y-87460000D01*
X136020000Y-89540000D02*
X136020000Y-91719000D01*
X136060000Y-85312000D02*
X136060000Y-87460000D01*
X136060000Y-89540000D02*
X136060000Y-91688000D01*
X136100000Y-85344000D02*
X136100000Y-87460000D01*
X136100000Y-89540000D02*
X136100000Y-91656000D01*
X136140000Y-85377000D02*
X136140000Y-87460000D01*
X136140000Y-89540000D02*
X136140000Y-91623000D01*
X136180000Y-85411000D02*
X136180000Y-87460000D01*
X136180000Y-89540000D02*
X136180000Y-91589000D01*
X136220000Y-85445000D02*
X136220000Y-87460000D01*
X136220000Y-89540000D02*
X136220000Y-91555000D01*
X136260000Y-85481000D02*
X136260000Y-87460000D01*
X136260000Y-89540000D02*
X136260000Y-91519000D01*
X136300000Y-85518000D02*
X136300000Y-87460000D01*
X136300000Y-89540000D02*
X136300000Y-91482000D01*
X136340000Y-85555000D02*
X136340000Y-87460000D01*
X136340000Y-89540000D02*
X136340000Y-91445000D01*
X136380000Y-85594000D02*
X136380000Y-87460000D01*
X136380000Y-89540000D02*
X136380000Y-91406000D01*
X136420000Y-85633000D02*
X136420000Y-87460000D01*
X136420000Y-89540000D02*
X136420000Y-91367000D01*
X136460000Y-85674000D02*
X136460000Y-87460000D01*
X136460000Y-89540000D02*
X136460000Y-91326000D01*
X136500000Y-85716000D02*
X136500000Y-87460000D01*
X136500000Y-89540000D02*
X136500000Y-91284000D01*
X136540000Y-85759000D02*
X136540000Y-87460000D01*
X136540000Y-89540000D02*
X136540000Y-91241000D01*
X136580000Y-85804000D02*
X136580000Y-87460000D01*
X136580000Y-89540000D02*
X136580000Y-91196000D01*
X136620000Y-85849000D02*
X136620000Y-87460000D01*
X136620000Y-89540000D02*
X136620000Y-91151000D01*
X136660000Y-85896000D02*
X136660000Y-87460000D01*
X136660000Y-89540000D02*
X136660000Y-91104000D01*
X136700000Y-85945000D02*
X136700000Y-87460000D01*
X136700000Y-89540000D02*
X136700000Y-91055000D01*
X136740000Y-85995000D02*
X136740000Y-87460000D01*
X136740000Y-89540000D02*
X136740000Y-91005000D01*
X136780000Y-86047000D02*
X136780000Y-87460000D01*
X136780000Y-89540000D02*
X136780000Y-90953000D01*
X136820000Y-86100000D02*
X136820000Y-87460000D01*
X136820000Y-89540000D02*
X136820000Y-90900000D01*
X136860000Y-86156000D02*
X136860000Y-87460000D01*
X136860000Y-89540000D02*
X136860000Y-90844000D01*
X136900000Y-86213000D02*
X136900000Y-87460000D01*
X136900000Y-89540000D02*
X136900000Y-90787000D01*
X136940000Y-86273000D02*
X136940000Y-87460000D01*
X136940000Y-89540000D02*
X136940000Y-90727000D01*
X136980000Y-86335000D02*
X136980000Y-87460000D01*
X136980000Y-89540000D02*
X136980000Y-90665000D01*
X137020000Y-86399000D02*
X137020000Y-87460000D01*
X137020000Y-89540000D02*
X137020000Y-90601000D01*
X137060000Y-86466000D02*
X137060000Y-90534000D01*
X137100000Y-86536000D02*
X137100000Y-90464000D01*
X137140000Y-86610000D02*
X137140000Y-90390000D01*
X137180000Y-86687000D02*
X137180000Y-90313000D01*
X137220000Y-86769000D02*
X137220000Y-90231000D01*
X137260000Y-86856000D02*
X137260000Y-90144000D01*
X137300000Y-86948000D02*
X137300000Y-90052000D01*
X137340000Y-87047000D02*
X137340000Y-89953000D01*
X137380000Y-87154000D02*
X137380000Y-89846000D01*
X137420000Y-87272000D02*
X137420000Y-89728000D01*
X137460000Y-87403000D02*
X137460000Y-89597000D01*
X137500000Y-87553000D02*
X137500000Y-89447000D01*
X137540000Y-87732000D02*
X137540000Y-89268000D01*
X137580000Y-87967000D02*
X137580000Y-89033000D01*
X137620000Y-88500000D02*
G75*
G02*
X129380000Y-88500000I-4120000J0D01*
G01*
X129380000Y-88500000D02*
G75*
G02*
X137620000Y-88500000I4120000J0D01*
G01*
%TO.C,D4*%
X104435000Y-78955000D02*
X104435000Y-82045000D01*
X104435000Y-78955170D02*
G75*
G02*
X109985000Y-80500000I2560000J-1544830D01*
G01*
X109985000Y-80500000D02*
G75*
G02*
X104435000Y-82044830I-2990000J0D01*
G01*
X109495000Y-80500000D02*
G75*
G02*
X104495000Y-80500000I-2500000J0D01*
G01*
X104495000Y-80500000D02*
G75*
G02*
X109495000Y-80500000I2500000J0D01*
G01*
%TO.C,D9*%
X130935000Y-100955000D02*
X130935000Y-104045000D01*
X130935000Y-100955170D02*
G75*
G02*
X136485000Y-102500000I2560000J-1544830D01*
G01*
X136485000Y-102500000D02*
G75*
G02*
X130935000Y-104044830I-2990000J0D01*
G01*
X135995000Y-102500000D02*
G75*
G02*
X130995000Y-102500000I-2500000J0D01*
G01*
X130995000Y-102500000D02*
G75*
G02*
X135995000Y-102500000I2500000J0D01*
G01*
%TO.C,D2*%
X129435000Y-76455000D02*
X129435000Y-79545000D01*
X129435000Y-76455170D02*
G75*
G02*
X134985000Y-78000000I2560000J-1544830D01*
G01*
X134985000Y-78000000D02*
G75*
G02*
X129435000Y-79544830I-2990000J0D01*
G01*
X134495000Y-78000000D02*
G75*
G02*
X129495000Y-78000000I-2500000J0D01*
G01*
X129495000Y-78000000D02*
G75*
G02*
X134495000Y-78000000I2500000J0D01*
G01*
%TO.C,BT1*%
X104720000Y-89540000D02*
X104720000Y-92000000D01*
X104720000Y-98000000D02*
X104720000Y-98630000D01*
X104720000Y-98630000D02*
X106160000Y-102580000D01*
X106800000Y-87460000D02*
X104720000Y-89540000D01*
X110300000Y-87460000D02*
X106800000Y-87460000D01*
X124200000Y-87460000D02*
X120700000Y-87460000D01*
X124200000Y-87460000D02*
X126280000Y-89540000D01*
X126280000Y-89540000D02*
X126280000Y-92000000D01*
X126280000Y-98000000D02*
X126280000Y-98630000D01*
X126280000Y-98630000D02*
X124840000Y-102580000D01*
X109496646Y-103566530D02*
G75*
G02*
X106160000Y-102580000I-1306646J1716531D01*
G01*
X124825243Y-102588169D02*
G75*
G02*
X121500000Y-103550000I-2015243J738169D01*
G01*
%TO.C,SW1*%
X93750000Y-90500000D02*
X93750000Y-92000000D01*
X95000000Y-94500000D02*
X99500000Y-94500000D01*
X99500000Y-88000000D02*
X95000000Y-88000000D01*
X100750000Y-92000000D02*
X100750000Y-90500000D01*
%TO.C,D7*%
X139710000Y-91955000D02*
X139710000Y-95045000D01*
X139710000Y-91955170D02*
G75*
G02*
X145260000Y-93500000I2560000J-1544830D01*
G01*
X145260000Y-93500000D02*
G75*
G02*
X139710000Y-95044830I-2990000J0D01*
G01*
X144770000Y-93500000D02*
G75*
G02*
X139770000Y-93500000I-2500000J0D01*
G01*
X139770000Y-93500000D02*
G75*
G02*
X144770000Y-93500000I2500000J0D01*
G01*
%TO.C,D1*%
X121435000Y-78955000D02*
X121435000Y-82045000D01*
X121435000Y-78955170D02*
G75*
G02*
X126985000Y-80500000I2560000J-1544830D01*
G01*
X126985000Y-80500000D02*
G75*
G02*
X121435000Y-82044830I-2990000J0D01*
G01*
X126495000Y-80500000D02*
G75*
G02*
X121495000Y-80500000I-2500000J0D01*
G01*
X121495000Y-80500000D02*
G75*
G02*
X126495000Y-80500000I2500000J0D01*
G01*
%TD*%
M02*
