%TF.GenerationSoftware,KiCad,Pcbnew,9.0.6*%
%TF.CreationDate,2025-11-30T08:55:57-05:00*%
%TF.ProjectId,project-solder,70726f6a-6563-4742-9d73-6f6c6465722e,rev?*%
%TF.SameCoordinates,Original*%
%TF.FileFunction,Copper,L2,Bot*%
%TF.FilePolarity,Positive*%
%FSLAX46Y46*%
G04 Gerber Fmt 4.6, Leading zero omitted, Abs format (unit mm)*
G04 Created by KiCad (PCBNEW 9.0.6) date 2025-11-30 08:55:57*
%MOMM*%
%LPD*%
G01*
G04 APERTURE LIST*
G04 Aperture macros list*
%AMRoundRect*
0 Rectangle with rounded corners*
0 $1 Rounding radius*
0 $2 $3 $4 $5 $6 $7 $8 $9 X,Y pos of 4 corners*
0 Add a 4 corners polygon primitive as box body*
4,1,4,$2,$3,$4,$5,$6,$7,$8,$9,$2,$3,0*
0 Add four circle primitives for the rounded corners*
1,1,$1+$1,$2,$3*
1,1,$1+$1,$4,$5*
1,1,$1+$1,$6,$7*
1,1,$1+$1,$8,$9*
0 Add four rect primitives between the rounded corners*
20,1,$1+$1,$2,$3,$4,$5,0*
20,1,$1+$1,$4,$5,$6,$7,0*
20,1,$1+$1,$6,$7,$8,$9,0*
20,1,$1+$1,$8,$9,$2,$3,0*%
G04 Aperture macros list end*
%TA.AperFunction,ComponentPad*%
%ADD10R,1.800000X1.800000*%
%TD*%
%TA.AperFunction,ComponentPad*%
%ADD11C,1.800000*%
%TD*%
%TA.AperFunction,ComponentPad*%
%ADD12C,1.440000*%
%TD*%
%TA.AperFunction,ComponentPad*%
%ADD13C,1.600000*%
%TD*%
%TA.AperFunction,ComponentPad*%
%ADD14RoundRect,0.250000X-0.550000X-0.550000X0.550000X-0.550000X0.550000X0.550000X-0.550000X0.550000X0*%
%TD*%
%TA.AperFunction,ComponentPad*%
%ADD15C,2.000000*%
%TD*%
%TA.AperFunction,Conductor*%
%ADD16C,0.200000*%
%TD*%
G04 APERTURE END LIST*
D10*
%TO.P,D11,1,K*%
%TO.N,Net-(D11-K)*%
X124000000Y-110500000D03*
D11*
%TO.P,D11,2,A*%
%TO.N,Net-(D10-K)*%
X126540000Y-110500000D03*
%TD*%
D12*
%TO.P,RV2,1,1*%
%TO.N,Net-(BT1--)*%
X116000000Y-117500000D03*
%TO.P,RV2,2,2*%
%TO.N,Net-(D4-K)*%
X118540000Y-114960000D03*
%TO.P,RV2,3,3*%
%TO.N,unconnected-(RV2-Pad3)*%
X116000000Y-112420000D03*
%TD*%
D10*
%TO.P,D6,1,K*%
%TO.N,Net-(D6-K)*%
X90000000Y-83000000D03*
D11*
%TO.P,D6,2,A*%
%TO.N,Net-(D5-K)*%
X92540000Y-83000000D03*
%TD*%
D13*
%TO.P,R1,1*%
%TO.N,Net-(D11-K)*%
X112190000Y-123000000D03*
%TO.P,R1,2*%
%TO.N,Net-(BT1--)*%
X119810000Y-123000000D03*
%TD*%
D10*
%TO.P,D10,1,K*%
%TO.N,Net-(D10-K)*%
X96500000Y-102500000D03*
D11*
%TO.P,D10,2,A*%
%TO.N,Net-(D10-A)*%
X99040000Y-102500000D03*
%TD*%
D10*
%TO.P,D8,1,K*%
%TO.N,Net-(D8-K)*%
X87000000Y-92000000D03*
D11*
%TO.P,D8,2,A*%
%TO.N,Net-(D7-K)*%
X89540000Y-92000000D03*
%TD*%
D10*
%TO.P,D5,1,K*%
%TO.N,Net-(D5-K)*%
X98000000Y-78000000D03*
D11*
%TO.P,D5,2,A*%
%TO.N,Net-(D3-K)*%
X100540000Y-78000000D03*
%TD*%
D10*
%TO.P,D3,1,K*%
%TO.N,Net-(D3-K)*%
X139460000Y-82500000D03*
D11*
%TO.P,D3,2,A*%
%TO.N,Net-(D2-K)*%
X142000000Y-82500000D03*
%TD*%
D14*
%TO.P,C1,1*%
%TO.N,Net-(D1-A)*%
X131000000Y-88500000D03*
D13*
%TO.P,C1,2*%
%TO.N,Net-(BT1--)*%
X136000000Y-88500000D03*
%TD*%
D10*
%TO.P,D4,1,K*%
%TO.N,Net-(D4-K)*%
X105725000Y-80500000D03*
D11*
%TO.P,D4,2,A*%
%TO.N,Net-(BT1-+)*%
X108265000Y-80500000D03*
%TD*%
D10*
%TO.P,D9,1,K*%
%TO.N,Net-(D10-A)*%
X132225000Y-102500000D03*
D11*
%TO.P,D9,2,A*%
%TO.N,Net-(D8-K)*%
X134765000Y-102500000D03*
%TD*%
D10*
%TO.P,D2,1,K*%
%TO.N,Net-(D2-K)*%
X130725000Y-78000000D03*
D11*
%TO.P,D2,2,A*%
%TO.N,Net-(D1-K)*%
X133265000Y-78000000D03*
%TD*%
D15*
%TO.P,SW1,1,1*%
%TO.N,Net-(BT1-+)*%
X94000000Y-89000000D03*
X100500000Y-89000000D03*
%TO.P,SW1,2,2*%
%TO.N,Net-(D1-A)*%
X94000000Y-93500000D03*
X100500000Y-93500000D03*
%TD*%
D10*
%TO.P,D7,1,K*%
%TO.N,Net-(D7-K)*%
X141000000Y-93500000D03*
D11*
%TO.P,D7,2,A*%
%TO.N,Net-(D6-K)*%
X143540000Y-93500000D03*
%TD*%
D10*
%TO.P,D1,1,K*%
%TO.N,Net-(D1-K)*%
X122725000Y-80500000D03*
D11*
%TO.P,D1,2,A*%
%TO.N,Net-(D1-A)*%
X125265000Y-80500000D03*
%TD*%
D16*
%TO.N,Net-(BT1--)*%
X119810000Y-123000000D02*
X119810000Y-121310000D01*
X119810000Y-121310000D02*
X116000000Y-117500000D01*
%TO.N,Net-(D1-A)*%
X100500000Y-93500000D02*
X112265000Y-93500000D01*
X125265000Y-82765000D02*
X131000000Y-88500000D01*
X125265000Y-80500000D02*
X125265000Y-82765000D01*
X112265000Y-93500000D02*
X125265000Y-80500000D01*
%TD*%
M02*
